<svg width="30" height="30" viewBox="0 0 30 30" fill="none" xmlns="http://www.w3.org/2000/svg">
<path d="M5 7.5L15 2.5L25 7.5M22.5 12.5L27.5 15V25C27.5 25.663 27.2366 26.2989 26.7678 26.7678C26.2989 27.2366 25.663 27.5 25 27.5H5C4.33696 27.5 3.70107 27.2366 3.23223 26.7678C2.76339 26.2989 2.5 25.663 2.5 25V15L7.5 12.5" stroke="#168F38" stroke-width="2" stroke-linecap="round" stroke-linejoin="round"/>
<path d="M17.5 27.5V22.5C17.5 21.837 17.2366 21.2011 16.7678 20.7322C16.2989 20.2634 15.663 20 15 20C14.337 20 13.7011 20.2634 13.2322 20.7322C12.7634 21.2011 12.5 21.837 12.5 22.5V27.5M22.5 6.25V27.5M7.5 6.25V27.5" stroke="#168F38" stroke-width="2" stroke-linecap="round" stroke-linejoin="round"/>
<path d="M15 13.75C16.3807 13.75 17.5 12.6307 17.5 11.25C17.5 9.86929 16.3807 8.75 15 8.75C13.6193 8.75 12.5 9.86929 12.5 11.25C12.5 12.6307 13.6193 13.75 15 13.75Z" stroke="#168F38" stroke-width="2" stroke-linecap="round" stroke-linejoin="round"/>
</svg>
