<svg width="32" height="32" viewBox="0 0 32 32" fill="none" xmlns="http://www.w3.org/2000/svg">
<path d="M12.0001 18.3333C8.88008 18.3333 2.66675 19.8933 2.66675 23V25.3333H21.3334V23C21.3334 19.8933 15.1201 18.3333 12.0001 18.3333ZM5.78675 22.6666C6.90675 21.8933 9.61341 21 12.0001 21C14.3867 21 17.0934 21.8933 18.2134 22.6666H5.78675ZM12.0001 16C14.5734 16 16.6667 13.9066 16.6667 11.3333C16.6667 8.75996 14.5734 6.66663 12.0001 6.66663C9.42675 6.66663 7.33341 8.75996 7.33341 11.3333C7.33341 13.9066 9.42675 16 12.0001 16ZM12.0001 9.33329C13.1067 9.33329 14.0001 10.2266 14.0001 11.3333C14.0001 12.44 13.1067 13.3333 12.0001 13.3333C10.8934 13.3333 10.0001 12.44 10.0001 11.3333C10.0001 10.2266 10.8934 9.33329 12.0001 9.33329ZM21.3867 18.4133C22.9334 19.5333 24.0001 21.0266 24.0001 23V25.3333H29.3334V23C29.3334 20.3066 24.6667 18.7733 21.3867 18.4133ZM20.0001 16C22.5734 16 24.6667 13.9066 24.6667 11.3333C24.6667 8.75996 22.5734 6.66663 20.0001 6.66663C19.2801 6.66663 18.6134 6.83996 18.0001 7.13329C18.8401 8.31996 19.3334 9.77329 19.3334 11.3333C19.3334 12.8933 18.8401 14.3466 18.0001 15.5333C18.6134 15.8266 19.2801 16 20.0001 16Z" fill="#168F38"/>
</svg>
